<svg width="12" height="9" viewBox="0 0 12 9" fill="none" xmlns="http://www.w3.org/2000/svg">
<path d="M11.2333 1.83333L4.16661 8.9C4.13562 8.93124 4.09875 8.95604 4.05813 8.97296C4.01751 8.98988 3.97395 8.9986 3.92994 8.9986C3.88594 8.9986 3.84237 8.98988 3.80175 8.97296C3.76113 8.95604 3.72426 8.93124 3.69328 8.9L0.0999422 5.30666C0.0686994 5.27568 0.0439012 5.23881 0.0269783 5.19819C0.0100554 5.15757 0.00134277 5.114 0.00134277 5.07C0.00134277 5.02599 0.0100554 4.98242 0.0269783 4.9418C0.0439012 4.90119 0.0686994 4.86432 0.0999422 4.83333L0.566609 4.36666C0.597596 4.33542 0.634463 4.31062 0.675083 4.2937C0.715703 4.27678 0.759271 4.26806 0.803275 4.26806C0.847279 4.26806 0.890848 4.27678 0.931468 4.2937C0.972087 4.31062 1.00895 4.33542 1.03994 4.36666L3.92661 7.25333L10.2933 0.886663C10.3567 0.825164 10.4416 0.790771 10.5299 0.790771C10.6183 0.790771 10.7032 0.825164 10.7666 0.886663L11.2333 1.36C11.2645 1.39098 11.2893 1.42785 11.3062 1.46847C11.3232 1.50909 11.3319 1.55266 11.3319 1.59666C11.3319 1.64067 11.3232 1.68424 11.3062 1.72486C11.2893 1.76548 11.2645 1.80234 11.2333 1.83333Z" fill="white"/>
</svg>
